<svg enable-background="new 0 0 128 128" viewBox="0 0 128 128" xmlns="http://www.w3.org/2000/svg"><g fill="#ffc107"><path d="m36.46 36.81-14.14-9.06c-1.22-.75-1.42-2.44-.41-3.45l5.31-5.31c1.02-1.02 2.74-.8 3.47.45l8.84 14.37c1.16 1.98-1.11 4.2-3.07 3z"/><path d="m24.1 80.39-16.42.33c-1.43.03-2.45 1.39-2.09 2.77l1.91 7.26c.37 1.4 1.96 2.07 3.22 1.37l14.51-7.59c2-1.13 1.17-4.19-1.13-4.14z"/><path d="m62.24 108.28-3.6 15.99c-.33 1.39.72 2.73 2.15 2.73h7.51c1.45 0 2.5-1.37 2.14-2.77l-3.91-15.99c-.58-2.23-3.75-2.2-4.29.04z"/><path d="m91.54 36.81 14.14-9.06c1.22-.75 1.42-2.44.41-3.45l-5.31-5.31c-1.02-1.02-2.74-.8-3.47.45l-8.84 14.37c-1.16 1.98 1.11 4.2 3.07 3z"/><path d="m103.9 80.39 16.42.33c1.43.03 2.45 1.39 2.09 2.77l-1.91 7.26c-.37 1.4-1.96 2.07-3.22 1.37l-14.51-7.59c-2-1.13-1.17-4.19 1.13-4.14z"/></g><path d="m68.05 7.23 13.46 30.7c1.03 2.35 3.26 3.96 5.82 4.19l32.79 2.94c3.71.54 5.19 5.09 2.5 7.71l-24.7 20.75c-2 1.68-2.91 4.32-2.36 6.87l7.18 33.61c.63 3.69-3.24 6.51-6.56 4.76l-28.62-16.76c-2.2-1.29-4.92-1.29-7.12 0l-28.62 16.75c-3.31 1.74-7.19-1.07-6.56-4.76l7.18-33.61c.54-2.55-.36-5.19-2.36-6.87l-24.71-20.73c-2.68-2.61-1.2-7.17 2.5-7.71l32.79-2.94c2.56-.23 4.79-1.84 5.82-4.19l13.46-30.7c1.67-3.36 6.45-3.36 8.11-.01z" fill="#fdd835"/><path d="m67.07 39.77-2.28-22.62c-.09-1.26-.35-3.42 1.67-3.42 1.6 0 2.47 3.33 2.47 3.33l6.84 18.16c2.58 6.91 1.52 9.28-.97 10.68-2.86 1.6-7.08.35-7.73-6.13z" fill="#ffff8d"/><path d="m95.28 71.51 19.62-15.31c.97-.81 2.72-2.1 1.32-3.57-1.11-1.16-4.11.51-4.11.51l-17.17 6.71c-5.12 1.77-8.52 4.39-8.82 7.69-.39 4.4 3.56 7.79 9.16 3.97z" fill="#f4b400"/></svg>